# xmcd
#
# Track frame offsets:
#	150
#	12560
#	24460
#	36827
#	54115
#	67010
#	83752
#	98162
#	110087
#	122440
#	137620
#	148037
#	161892
#	175325
#	191237
#	210197
#	225242
#	241980
#	260560
#	277587
#
# Disc length: 3894 seconds
#
# Revision: 1
# Processed by: cddbd v1.5.1PL0 Copyright (c) Steve Scherf et al.
# Submitted via: CDex 1.50Beta5
#
DISCID=0e0f3414
DTITLE=Various Artist - フォークポップスグラフィティ14
DYEAR=1994
DGENRE=Pop
TTITLE0=ジャキー吉川とブルー・コメッツ/ブルー・シャトウ
TTITLE1=ジャキー吉川とブルー・コメッツ/こころの虹
TTITLE2=ジャキー吉川とブルー・コメッツ/さよならのあとで
TTITLE3=ザ・ダーツ/ケメ子の歌
TTITLE4=ザ・シャデラックス/君について行こう
TTITLE5=マイケルズ/坊や大きくならないで
TTITLE6=千賀かほる/真夜中のギター
TTITLE7=ズー・ニー・ヴー/白いサンゴ礁
TTITLE8=ベッツィ＆クリス/白い色は恋人の色
TTITLE9=堺正章/さらば恋人
TTITLE10=青い三角定規/太陽がくれた季節
TTITLE11=やまがたすみこ/風に吹かれて行こう
TTITLE12=ダ・カーポ/結婚するって本当ですか
TTITLE13=中村雅俊/ふれあい
TTITLE14=中村雅俊/俺たちの旅
TTITLE15=庄野真代/飛んでイスタンブール
TTITLE16=庄野真代/モンテカルロで乾杯
TTITLE17=ゴダイゴ/ガンダーラ
TTITLE18=ジューシィ・フルーツ/ジェニーはご機嫌ななめ
TTITLE19=山下久美子/赤道小町ドキッ！
EXTD=
EXTT0=
EXTT1=
EXTT2=
EXTT3=
EXTT4=
EXTT5=
EXTT6=
EXTT7=
EXTT8=
EXTT9=
EXTT10=
EXTT11=
EXTT12=
EXTT13=
EXTT14=
EXTT15=
EXTT16=
EXTT17=
EXTT18=
EXTT19=
PLAYORDER=
